HIERARCHY
ROOT Hips
{
  OFFSET 0 0 0
  CHANNELS 6 Xposition Yposition Zposition Zrotation Yrotation Xrotation
  JOINT LeftThigh
  {
    OFFSET 8.409438 0 -5.917753
    CHANNELS 3 Zrotation Yrotation Xrotation
    JOINT LeftLeg
    {
      OFFSET 0 0 -42.358652
      CHANNELS 3 Zrotation Yrotation Xrotation
      JOINT LeftFoot
      {
        OFFSET 0 0 -39.357303
        CHANNELS 3 Zrotation Yrotation Xrotation
      }
    }
  }
  JOINT RightThigh
  {
    OFFSET -8.409438 0 -5.917753
    CHANNELS 3 Zrotation Yrotation Xrotation
    JOINT RightLeg
    {
      OFFSET 0 0 -42.358652
      CHANNELS 3 Zrotation Yrotation Xrotation
      JOINT RightFoot
      {
        OFFSET 0 0 -39.357303
        CHANNELS 3 Zrotation Yrotation Xrotation
      }
    }
  }
  JOINT SpineLow
  {
    OFFSET 0 0 4.719101
    CHANNELS 3 Zrotation Yrotation Xrotation
    JOINT SpineMid
    {
      OFFSET 0 0 12.899191
      CHANNELS 3 Zrotation Yrotation Xrotation
      JOINT Chest
      {
        OFFSET 0 0 12.899191
        CHANNELS 3 Zrotation Yrotation Xrotation
        JOINT LeftShoulder
        {
          OFFSET 7.550562 1.41573 9.438202
          CHANNELS 3 Zrotation Yrotation Xrotation
          JOINT LeftArm
          {
            OFFSET 9.155056 0 4.247191
            CHANNELS 3 Zrotation Yrotation Xrotation
            JOINT LeftForearm
            {
              OFFSET 0 0 25.771955
              CHANNELS 3 Zrotation Yrotation Xrotation
              JOINT LeftHand
              {
                OFFSET 0 0 25.197169
                CHANNELS 3 Zrotation Yrotation Xrotation
              }
            }
          }
        }
        JOINT RightShoulder
        {
          OFFSET -7.550562 1.41573 9.438202
          CHANNELS 3 Zrotation Yrotation Xrotation
          JOINT RightArm
          {
            OFFSET -9.155056 0 4.247191
            CHANNELS 3 Zrotation Yrotation Xrotation
            JOINT RightForearm
            {
              OFFSET 0 0 -25.771955
              CHANNELS 3 Zrotation Yrotation Xrotation
              JOINT RightHand
              {
                OFFSET 0 0 -25.197169
                CHANNELS 3 Zrotation Yrotation Xrotation
              }
            }
          }
        }
        JOINT Neck
        {
          OFFSET 0 0 15.101124
          CHANNELS 3 Zrotation Yrotation Xrotation
          JOINT Head
          {
            OFFSET 0 0 11.325843
            CHANNELS 3 Zrotation Yrotation Xrotation
            End Site
            {
              OFFSET 0 0 14.157303
            }
          }
        }
      }
    }
  }
}
MOTION
Frames: 10
Frame Time: 0.0
0.0  89.887642  0.0  4.433731  1.257451  -90.674702  10.326726  -9.114546  -1.439132  2.923749  0.779729  13.337022  -0.696918  0.364032  -1.270531  -15.429199  12.555972  -3.317143  -18.21259  5.146175  3.720998  6.745346  2.858881  0.78847  -3.556769  -0.995654  0.574776  -9.749883  -2.630125  1.714295  -9.749883  -2.630125  1.714295  -14.219662  -14.430613  -8.425001  -32.880026  59.229932  26.242792  6.506691  -40.97956  50.640748  107.028391  16.56079  4.47915  -17.723194  4.068466  8.11481  55.981645  11.067291  60.698001  13.621532  -18.399134  -103.350176  83.674618  -10.513999  -7.861851  -5.096249  -2.796279  -30.544963  -3.973292  -1.847816  -22.929326  
0.0  89.887642  0.0  4.522323  1.224952  -90.747249  11.036979  -8.902977  -0.293255  2.969876  0.480123  11.741215  -0.698122  0.36115  -1.314313  -15.784476  12.630575  -3.657216  -17.816608  5.328383  4.268851  7.757453  2.924715  1.039909  -3.325899  -0.954528  0.471361  -9.113376  -2.53855  1.417409  -9.113376  -2.53855  1.417409  -11.343407  -16.433541  -7.509168  -31.95004  56.39949  26.189548  8.413187  -38.21319  50.315941  107.388607  16.047452  3.500747  -17.484118  4.209208  9.483236  58.533541  8.444501  62.52202  15.2493  -22.848412  -104.093631  82.078866  -10.36458  -6.229022  -6.323909  -3.11499  -29.983388  -4.908982  -2.031686  -22.517032  
0.0  89.887642  0.0  4.629465  0.822474  -89.633737  11.426673  -8.185804  -0.567807  4.214095  -0.056199  10.523919  -0.87839  0.3767  -1.250993  -16.559811  12.417956  -5.275523  -17.462359  5.473942  4.787257  7.966606  3.11187  0.986705  -3.11851  -0.897708  0.334853  -8.539869  -2.405903  1.029621  -8.539869  -2.405903  1.029621  -9.240365  -19.249033  -7.513651  -29.480787  55.555097  27.196973  12.822177  -38.64335  47.972085  107.61315  15.525279  4.279361  -16.920067  3.655357  9.783108  59.72634  6.780493  63.135054  16.264829  -25.124265  -104.687192  81.332057  -10.21541  -6.170203  -7.206653  -3.741399  -29.798857  -5.601799  -2.461644  -22.388935  
0.0  89.887642  0.0  4.820002  0.751726  -88.445808  10.858945  -7.225017  -1.212181  5.891237  -0.556964  9.707095  -0.898469  0.32371  -1.231092  -17.715557  12.27425  -6.83761  -17.328393  5.584049  5.107024  8.267871  3.263283  0.916588  -3.011771  -0.824214  0.199118  -8.241973  -2.224092  0.646084  -8.241973  -2.224092  0.646084  -8.017074  -21.430995  -7.175216  -24.350465  55.164587  29.967924  16.81976  -41.415981  45.153356  107.704533  15.140348  6.396626  -14.273546  3.343355  10.780313  57.876295  6.406805  62.061267  16.332062  -25.855348  -105.344914  82.213684  -9.716601  -6.902096  -7.795007  -4.290197  -29.666473  -6.069387  -2.847423  -22.298396  
0.0  89.887642  0.0  4.622392  0.232764  -89.577568  10.039675  -6.891526  0.209385  7.894192  -1.137186  9.114569  -0.801944  0.19448  -1.148016  -18.012653  12.47822  -5.929214  -17.187169  5.665612  5.249338  8.545151  3.327456  0.804168  -2.87028  -0.827335  0.3523  -7.860211  -2.215933  1.059908  -7.860211  -2.215933  1.059908  -6.929139  -22.110817  -6.687943  -17.72928  53.732336  34.422207  17.571423  -43.590531  43.137469  107.994546  14.919966  8.602174  -13.786742  3.077174  10.838883  57.196199  6.92938  61.734573  15.461158  -24.962705  -105.225896  84.016075  -9.071297  -7.926078  -8.190614  -4.331974  -29.406196  -6.366601  -2.862997  -22.106828  
0.0  89.887642  0.0  4.341775  0.942531  -89.910128  8.007944  -6.371574  0.729872  9.955097  -1.782624  8.64866  -0.805364  -0.066338  -0.98768  -19.480852  12.415563  -5.554478  -16.898464  5.680153  5.194316  8.840781  3.41658  0.663951  -2.835648  -0.911287  0.365135  -7.767793  -2.444117  1.103731  -7.767792  -2.444118  1.103731  -6.323295  -22.276779  -6.404154  -15.035324  52.789521  36.267113  17.085238  -44.147902  42.220315  108.117433  14.458591  10.054071  -13.977365  2.894743  10.639527  56.321993  7.651299  61.293383  14.080128  -23.478108  -104.97597  85.45537  -8.577925  -9.934716  -8.761176  -4.127199  -29.186238  -6.784071  -2.684513  -21.944665  
0.0  89.887642  0.0  4.252284  1.268856  -89.879472  6.509033  -5.701054  0.829591  11.759109  -2.406773  8.431243  -1.18479  -0.382104  -0.924746  -20.534324  12.480453  -5.440702  -16.603125  5.53929  4.913612  8.967405  3.354925  0.560674  -2.608586  -0.933679  0.237795  -7.142616  -2.523035  0.750121  -7.142617  -2.523035  0.750121  -6.808487  -22.17738  -5.490258  -16.648625  53.341808  35.063943  16.179217  -44.229826  42.688944  108.681036  14.110774  10.608701  -15.046667  2.584089  10.910842  55.56204  8.218045  60.654093  13.612007  -22.477277  -105.245266  85.87349  -8.397617  -11.965335  -9.851245  -3.849388  -28.732528  -7.587016  -2.430537  -21.609963  
0.0  89.887642  0.0  3.572337  0.771867  -90.106198  6.108879  -5.987733  1.015292  12.808128  -2.836179  8.463424  -1.627123  -0.562991  -0.966252  -20.254165  12.078268  -4.669083  -16.485459  5.378479  4.470022  9.080442  3.288922  0.477083  -2.239589  -0.926461  0.121639  -6.129073  -2.51862  0.418124  -6.129074  -2.51862  0.418124  -7.609127  -22.289683  -4.028405  -20.238097  53.767956  32.322983  14.414319  -44.418673  43.779497  109.173208  13.956116  10.538827  -16.144958  1.707438  11.664131  55.016414  8.579543  59.874877  14.096176  -22.455151  -105.628151  86.10547  -8.522267  -13.373809  -11.049017  -3.828343  -27.946078  -8.480234  -2.372303  -21.029118  
0.0  89.887642  0.0  3.569258  0.992447  -90.083702  5.443578  -5.951262  0.98756  12.680285  -2.912019  8.662879  -1.739642  -0.503326  -1.075075  -20.22603  12.174713  -4.186799  -16.845714  5.196315  3.966382  9.097519  3.244206  0.387933  -2.046339  -0.85116  -0.017625  -5.594972  -2.326137  0.02388  -5.594971  -2.326137  0.023879  -8.429197  -21.800524  -2.947104  -23.440547  54.001506  29.949252  13.586793  -45.110984  44.128131  109.176804  14.013332  9.837776  -16.746438  0.900361  12.041384  54.805202  8.63398  59.223088  14.3248  -22.475462  -105.486901  86.273451  -8.812957  -14.230883  -12.036221  -3.712017  -27.372321  -9.212606  -2.250756  -20.604665  
0.0  89.887642  0.0  3.384692  1.406669  -90.274281  5.064906  -6.420327  1.09803  11.574767  -2.577836  8.9493  -1.518559  -0.322394  -1.190143  -20.506467  12.256974  -3.676755  -17.231461  5.133747  3.506743  9.289102  2.988716  0.44021  -1.991816  -0.864457  -0.065537  -5.444225  -2.36646  -0.107854  -5.444225  -2.36646  -0.107854  -8.878323  -20.699547  -2.519902  -26.683176  54.25804  27.605583  13.773037  -45.865998  44.116778  109.210916  14.228964  8.824754  -16.598718  0.460604  11.961416  54.998547  8.473983  58.696726  13.757629  -22.040967  -104.705178  86.280405  -9.35576  -14.707213  -12.501434  -3.443552  -27.041132  -9.54816  -2.034647  -20.355323  
